<svg width="33" height="28" viewBox="0 0 33 28" fill="none" xmlns="http://www.w3.org/2000/svg">
<path d="M27.975 16.8C27.375 16.2 26.325 16.2 25.725 16.8C25.125 17.4 25.125 18.45 25.725 19.05L27.15 20.475H20.1C18.975 20.475 18.075 19.875 17.1 18.675C16.575 18 15.6 17.85 14.85 18.375C14.175 18.9 14.025 19.875 14.55 20.625C16.125 22.725 17.925 23.7 20.025 23.7H27.075L25.65 25.125C25.05 25.725 25.05 26.775 25.65 27.375C25.95 27.675 26.4 27.825 26.775 27.825C27.15 27.825 27.6 27.675 27.9 27.375L32.025 23.25C32.625 22.65 32.625 21.6 32.025 21L27.975 16.8ZM20.1 7.275H27.15L25.725 8.7C25.125 9.3 25.125 10.35 25.725 10.95C26.025 11.25 26.475 11.4 26.85 11.4C27.225 11.4 27.675 11.25 27.975 10.95L32.1 6.825C32.7 6.225 32.7 5.175 32.1 4.575L27.975 0.45C27.375 -0.15 26.325 -0.15 25.725 0.45C25.125 1.05 25.125 2.1 25.725 2.7L27.15 4.125H20.1C15.45 4.125 13.275 8.925 11.325 13.2C9.675 16.95 8.025 20.4 5.475 20.4H1.575C0.675 20.4 0 21.075 0 21.975C0 22.875 0.675 23.625 1.575 23.625H5.475C10.125 23.625 12.3 18.825 14.25 14.55C15.9 10.8 17.475 7.275 20.1 7.275ZM1.575 7.275H5.475C6.6 7.275 7.5 7.8 8.4 9C8.7 9.375 9.15 9.6 9.675 9.6C10.05 9.6 10.35 9.525 10.65 9.3C11.325 8.775 11.475 7.8 10.95 7.05C9.375 5.1 7.575 4.05 5.475 4.05H1.575C0.675 4.125 0 4.8 0 5.7C0 6.6 0.675 7.275 1.575 7.275Z" fill="white"/>
</svg>
