<svg width="48" height="48" viewBox="0 0 48 48" fill="none" xmlns="http://www.w3.org/2000/svg">
<path d="M20.5 4.99973H11C8.19975 4.99973 6.7996 4.99973 5.73005 5.54471C4.78923 6.02408 4.02432 6.78898 3.54497 7.72978C3 8.79936 3 10.1995 3 12.9997V36.9997C3 39.8 3 41.2002 3.54497 42.2697C4.02432 43.2105 4.78923 43.9755 5.73005 44.4547C6.7996 44.9997 8.19975 44.9997 11 44.9997H35C37.8002 44.9997 39.2005 44.9997 40.27 44.4547C41.2108 43.9755 41.9757 43.2105 42.455 42.2697C43 41.2002 43 39.8 43 36.9997V26.2497M31.75 8.74973L38.821 15.8208M19.9068 20.593L36.5275 3.97228C38.48 2.01966 41.646 2.01966 43.5985 3.97228C45.5513 5.92491 45.5513 9.09073 43.5985 11.0434L26.4435 28.1982C24.5395 30.1025 23.5875 31.0545 22.503 31.8115C21.5405 32.4837 20.5023 33.0402 19.41 33.4702C18.1793 33.9547 16.8595 34.221 14.2198 34.7537L13 34.9997L13.1186 34.1692C13.5384 31.231 13.7483 29.7617 14.2257 28.39C14.6494 27.1727 15.2281 26.0155 15.9476 24.9462C16.7585 23.7412 17.808 22.6917 19.9068 20.593Z" stroke="white" stroke-width="5" stroke-linecap="round" stroke-linejoin="round"/>
</svg>
