<svg width="17" height="21" viewBox="0 0 17 21" fill="none" xmlns="http://www.w3.org/2000/svg">
<path d="M16.3777 8.58936C16.3309 8.18762 16.0425 7.88175 15.6939 7.88175C15.3129 7.88175 15.004 8.24697 15.004 8.69762C15.004 8.73414 15.0062 8.77066 15.0101 8.80588L15.0096 8.80197C15.0487 9.13132 15.0708 9.51219 15.0708 9.89893C15.0708 14.4928 11.9235 18.2174 8.04012 18.222H8.03957C8.03461 18.222 8.02854 18.222 8.02303 18.222C5.94345 18.222 4.07728 17.1439 2.80119 15.4352L2.79457 15.4261H5.32139C5.7019 15.4261 6.01073 15.0609 6.01073 14.6109C6.01073 14.1609 5.7019 13.7957 5.32139 13.7957H1.42197C1.40267 13.7957 1.38668 13.8068 1.36793 13.8087C1.32381 13.8146 1.28411 13.8244 1.2455 13.8387L1.25047 13.8374C1.19587 13.8524 1.14844 13.8733 1.10378 13.8994L1.10764 13.8974C1.0944 13.9052 1.07951 13.9052 1.06628 13.915C1.04642 13.9346 1.02822 13.9541 1.01113 13.9744C0.970872 14.0096 0.935579 14.0481 0.903593 14.0904L0.903042 14.0911C0.817565 14.2072 0.760764 14.3552 0.748631 14.5189V14.5215C0.743117 14.5457 0.737602 14.5763 0.733742 14.607L0.73319 14.6109V19.2231C0.73319 19.6731 1.04201 20.0383 1.42252 20.0383C1.80304 20.0383 2.11186 19.6731 2.11186 19.2231V16.9594C3.62067 18.747 5.70632 19.8524 8.01089 19.8524C8.02137 19.8524 8.0313 19.8524 8.04178 19.8524H8.04012C12.6824 19.8465 16.4445 15.3974 16.45 9.90806V9.9074C16.45 9.4424 16.4235 8.98523 16.3728 8.53653L16.3777 8.58936ZM1.30892 12.2128C1.34146 12.2128 1.37344 12.2102 1.40433 12.205L1.40102 12.2057C1.74072 12.1509 1.99936 11.8104 1.99936 11.3983C1.99936 11.3604 1.99715 11.3226 1.99274 11.2861L1.99329 11.29C1.95359 10.9594 1.93153 10.5772 1.93153 10.1885C1.93153 5.59523 5.0793 1.87197 8.96273 1.87001C8.96769 1.87001 8.9732 1.87001 8.97872 1.87001C11.0583 1.87001 12.925 2.94806 14.2006 4.6574L14.2072 4.66653H11.6809C11.3004 4.66653 10.9916 5.03175 10.9916 5.48175C10.9916 5.93175 11.3004 6.29697 11.6809 6.29697H15.5809C15.5974 6.29697 15.6118 6.28719 15.6277 6.28588C15.7265 6.27023 15.8164 6.23958 15.8991 6.19458L15.893 6.19719C15.9068 6.18871 15.9222 6.18871 15.936 6.17893C15.9564 6.15936 15.9746 6.13979 15.9917 6.11893C16.032 6.08371 16.0673 6.04588 16.0987 6.00349L16.0993 6.00284C16.1505 5.92719 16.1936 5.83914 16.2239 5.74458L16.2255 5.73806C16.2388 5.69045 16.2487 5.63501 16.2531 5.57762V5.57436C16.2592 5.54958 16.2647 5.51827 16.2686 5.48632L16.2691 5.4824V0.870882C16.2691 0.420882 15.9603 0.0556641 15.5798 0.0556641C15.1993 0.0556641 14.8904 0.420882 14.8904 0.870882V3.13523C13.3816 1.34697 11.2949 0.240229 8.9903 0.240229C8.98037 0.240229 8.97045 0.240229 8.95997 0.240229H8.96162C4.31662 0.24349 0.551758 4.69784 0.551758 10.1918C0.551758 10.6554 0.57878 11.112 0.630618 11.5587L0.625654 11.5072C0.672529 11.9076 0.959843 12.2135 1.30782 12.2141L1.30892 12.2128Z" fill="#D9D9DA"/>
</svg>
