<svg width="16" height="20" viewBox="0 0 16 20" fill="none" xmlns="http://www.w3.org/2000/svg">
<path d="M2.30371 6.4707C2.57935 6.45516 2.81542 6.66579 2.83105 6.94141L3.21484 13.7402C3.28923 15.0599 3.3436 16.0085 3.46484 16.7285C3.58491 17.4413 3.76041 17.8588 4.02832 18.1553L4.12891 18.2578C4.37396 18.4819 4.69384 18.6166 5.19629 18.6943C5.79369 18.7867 6.57956 18.7881 7.7041 18.7881H8.34863C9.47313 18.7881 10.259 18.7867 10.8564 18.6943C11.4308 18.6055 11.766 18.4412 12.0244 18.1553C12.2924 17.8588 12.4688 17.4414 12.5889 16.7285C12.7101 16.0086 12.7635 15.0598 12.8379 13.7402C12.8536 13.4649 13.0899 13.2543 13.3652 13.2695C13.6409 13.2851 13.8524 13.5212 13.8369 13.7969C13.7638 15.0935 13.7069 16.1079 13.5742 16.8955C13.4404 17.6898 13.2192 18.3254 12.7666 18.8262C12.3042 19.3378 11.7243 19.5721 11.0098 19.6826C10.3183 19.7896 9.44126 19.7881 8.34863 19.7881H7.7041C6.61152 19.7881 5.73437 19.7896 5.04297 19.6826C4.32854 19.5721 3.74853 19.3378 3.28613 18.8262C2.83355 18.3254 2.61236 17.6898 2.47852 16.8955C2.34585 16.1079 2.28891 15.0935 2.21582 13.7969L1.83301 6.99805C1.81747 6.72241 2.0281 6.48634 2.30371 6.4707ZM5.89941 8.93652C6.17452 8.91333 6.41619 9.11746 6.43945 9.39258L6.85645 14.3203C6.87951 14.5953 6.67534 14.837 6.40039 14.8604C6.12524 14.8836 5.88265 14.6794 5.85938 14.4043L5.44336 9.47656C5.42016 9.20145 5.62429 8.95979 5.89941 8.93652ZM10.1504 8.93652C10.4254 8.95989 10.6296 9.20153 10.6064 9.47656L10.1895 14.4043C10.1662 14.6794 9.92449 14.8835 9.64941 14.8604C9.37436 14.8371 9.17028 14.5953 9.19336 14.3203L9.60938 9.39258C9.63264 9.11742 9.87523 8.91326 10.1504 8.93652ZM13.749 6.4707C14.0247 6.48628 14.2353 6.72237 14.2197 6.99805L14.0537 9.9541C14.0382 10.2297 13.8019 10.4411 13.5264 10.4258C13.2508 10.4102 13.0393 10.174 13.0547 9.89844L13.2217 6.94141C13.2373 6.66579 13.4734 6.45516 13.749 6.4707ZM15.1084 4.00684C15.3844 4.00701 15.6084 4.2308 15.6084 4.50684C15.6084 4.78287 15.3844 5.00666 15.1084 5.00684H0.941406C0.665264 5.00684 0.441406 4.78298 0.441406 4.50684C0.441406 4.23069 0.665264 4.00684 0.941406 4.00684H15.1084ZM8.02539 0.0654297C9.38641 0.0654297 10.4719 1.08728 10.8623 2.39355C10.9412 2.65807 10.7909 2.93658 10.5264 3.01562C10.2619 3.09455 9.98337 2.94416 9.9043 2.67969C9.60834 1.68936 8.84152 1.06543 8.02539 1.06543C7.20947 1.06557 6.44343 1.68948 6.14746 2.67969C6.06839 2.94427 5.78899 3.0947 5.52441 3.01562C5.26016 2.93646 5.10969 2.65791 5.18848 2.39355C5.57886 1.08739 6.66457 0.0655644 8.02539 0.0654297Z" fill="#FF0004"/>
</svg>
