<svg width="100" height="100" viewBox="0 0 100 100" fill="none" xmlns="http://www.w3.org/2000/svg">
<path d="M49.9993 60.4167V68.75M29.166 41.7867C31.1303 41.6667 33.5518 41.6667 36.666 41.6667H63.3327C66.4468 41.6667 68.8685 41.6667 70.8327 41.7867M29.166 41.7867C26.7147 41.9362 24.9756 42.2729 23.4911 43.0292C21.1391 44.2275 19.2268 46.1396 18.0284 48.4917C16.666 51.1658 16.666 54.6658 16.666 61.6667V67.5C16.666 74.5008 16.666 78.0008 18.0284 80.675C19.2268 83.0271 21.1391 84.9392 23.4911 86.1375C26.165 87.5 29.6653 87.5 36.666 87.5H63.3327C70.3335 87.5 73.8335 87.5 76.5077 86.1375C78.8598 84.9392 80.7718 83.0271 81.9702 80.675C83.3327 78.0008 83.3327 74.5008 83.3327 67.5V61.6667C83.3327 54.6658 83.3327 51.1658 81.9702 48.4917C80.7718 46.1396 78.8598 44.2275 76.5077 43.0292C75.0231 42.2729 73.2839 41.9362 70.8327 41.7867M29.166 41.7867V33.3333C29.166 21.8274 38.4934 12.5 49.9993 12.5C61.5052 12.5 70.8327 21.8274 70.8327 33.3333V41.7867" stroke="white" stroke-width="5" stroke-linecap="round" stroke-linejoin="round"/>
</svg>
