<svg width="85" height="81" viewBox="0 0 85 81" fill="none" xmlns="http://www.w3.org/2000/svg">
<rect x="2" y="2" width="81" height="77" rx="38.5" stroke="black" stroke-width="4"/>
<path d="M42.5 18V20.5M42.5 60.5V63M22.5 40.5H20M28.2853 26.2853L26.25 24.25M56.7147 26.2853L58.75 24.25M28.2853 54.725L26.25 56.7502M56.7147 54.725L58.75 56.7502M65 40.5H62.5M52.5 40.5C52.5 46.0228 48.0228 50.5 42.5 50.5C36.9771 50.5 32.5 46.0228 32.5 40.5C32.5 34.9771 36.9771 30.5 42.5 30.5C48.0228 30.5 52.5 34.9771 52.5 40.5Z" stroke="black" stroke-width="5" stroke-linecap="round" stroke-linejoin="round"/>
</svg>
